{
    "accessors" : [
        {
            "bufferView" : 0, 
            "componentType" : 5121, 
            "count" : 84, 
            "max" : [
                55
            ], 
            "min" : [
                0
            ], 
            "type" : "SCALAR"
        }, 
        {
            "bufferView" : 1, 
            "componentType" : 5126, 
            "count" : 56, 
            "max" : [
                1.876110315322876, 
                5.8626275062561035, 
                1.876110315322876
            ], 
            "min" : [
                -1.876110315322876, 
                -1.0, 
                -1.876110315322876
            ], 
            "type" : "VEC3"
        }, 
        {
            "bufferView" : 2, 
            "componentType" : 5126, 
            "count" : 56, 
            "max" : [
                0.9929501414299011, 
                1.0, 
                0.9929501414299011
            ], 
            "min" : [
                -0.9929501414299011, 
                -1.0, 
                -0.9929501414299011
            ], 
            "type" : "VEC3"
        }, 
        {
            "bufferView" : 3, 
            "componentType" : 5121, 
            "count" : 6, 
            "max" : [
                3
            ], 
            "min" : [
                0
            ], 
            "type" : "SCALAR"
        }, 
        {
            "bufferView" : 4, 
            "componentType" : 5126, 
            "count" : 4, 
            "max" : [
                1.0, 
                0.0, 
                1.0
            ], 
            "min" : [
                -1.0, 
                0.0, 
                -1.0
            ], 
            "type" : "VEC3"
        }, 
        {
            "bufferView" : 5, 
            "componentType" : 5126, 
            "count" : 4, 
            "max" : [
                -0.0, 
                1.0, 
                -0.0
            ], 
            "min" : [
                -0.0, 
                1.0, 
                -0.0
            ], 
            "type" : "VEC3"
        }, 
        {
            "bufferView" : 6, 
            "componentType" : 5126, 
            "count" : 4, 
            "max" : [
                1.0, 
                0.0, 
                -0.0, 
                -1.0
            ], 
            "min" : [
                1.0, 
                0.0, 
                -0.0, 
                -1.0
            ], 
            "type" : "VEC4"
        }, 
        {
            "bufferView" : 7, 
            "componentType" : 5126, 
            "count" : 4, 
            "max" : [
                0.9999000430107117, 
                0.9999000199895818
            ], 
            "min" : [
                9.998001041822135e-05, 
                9.995698928833008e-05
            ], 
            "type" : "VEC2"
        }, 
        {
            "bufferView" : 8, 
            "componentType" : 5121, 
            "count" : 6, 
            "max" : [
                3
            ], 
            "min" : [
                0
            ], 
            "type" : "SCALAR"
        }, 
        {
            "bufferView" : 9, 
            "componentType" : 5126, 
            "count" : 4, 
            "max" : [
                1.0, 
                1.0, 
                1.0
            ], 
            "min" : [
                1.0, 
                0.0, 
                -1.0
            ], 
            "type" : "VEC3"
        }, 
        {
            "bufferView" : 10, 
            "componentType" : 5126, 
            "count" : 4, 
            "max" : [
                -1.0, 
                -0.0, 
                -0.0
            ], 
            "min" : [
                -1.0, 
                -0.0, 
                -0.0
            ], 
            "type" : "VEC3"
        }, 
        {
            "bufferView" : 11, 
            "componentType" : 5126, 
            "count" : 4, 
            "max" : [
                0.0, 
                -1.4901162970204496e-08, 
                1.0, 
                -1.0
            ], 
            "min" : [
                0.0, 
                -1.4901162970204496e-08, 
                1.0, 
                -1.0
            ], 
            "type" : "VEC4"
        }, 
        {
            "bufferView" : 12, 
            "componentType" : 5126, 
            "count" : 4, 
            "max" : [
                2.0, 
                1.5
            ], 
            "min" : [
                -1.0, 
                -0.5
            ], 
            "type" : "VEC2"
        }, 
        {
            "bufferView" : 13, 
            "componentType" : 5121, 
            "count" : 6, 
            "max" : [
                3
            ], 
            "min" : [
                0
            ], 
            "type" : "SCALAR"
        }, 
        {
            "bufferView" : 14, 
            "componentType" : 5126, 
            "count" : 4, 
            "max" : [
                -1.0, 
                1.0, 
                1.0
            ], 
            "min" : [
                -1.0, 
                0.0, 
                -1.0
            ], 
            "type" : "VEC3"
        }, 
        {
            "bufferView" : 15, 
            "componentType" : 5126, 
            "count" : 4, 
            "max" : [
                1.0, 
                0.0, 
                -0.0
            ], 
            "min" : [
                1.0, 
                0.0, 
                -0.0
            ], 
            "type" : "VEC3"
        }, 
        {
            "bufferView" : 16, 
            "componentType" : 5126, 
            "count" : 4, 
            "max" : [
                0.0, 
                -5.94334110814998e-08, 
                -1.0, 
                -1.0
            ], 
            "min" : [
                0.0, 
                -5.94334110814998e-08, 
                -1.0, 
                -1.0
            ], 
            "type" : "VEC4"
        }, 
        {
            "bufferView" : 17, 
            "componentType" : 5126, 
            "count" : 4, 
            "max" : [
                1.999739646911621, 
                1.5013538599014282
            ], 
            "min" : [
                -0.9997397065162659, 
                -0.5044087171554565
            ], 
            "type" : "VEC2"
        }, 
        {
            "bufferView" : 18, 
            "componentType" : 5121, 
            "count" : 6, 
            "max" : [
                3
            ], 
            "min" : [
                0
            ], 
            "type" : "SCALAR"
        }, 
        {
            "bufferView" : 19, 
            "componentType" : 5126, 
            "count" : 4, 
            "max" : [
                1.0, 
                1.0, 
                -1.0
            ], 
            "min" : [
                -1.0, 
                0.0, 
                -1.0
            ], 
            "type" : "VEC3"
        }, 
        {
            "bufferView" : 20, 
            "componentType" : 5126, 
            "count" : 4, 
            "max" : [
                0.0, 
                -0.0, 
                1.0
            ], 
            "min" : [
                0.0, 
                -0.0, 
                1.0
            ], 
            "type" : "VEC3"
        }, 
        {
            "bufferView" : 21, 
            "componentType" : 5126, 
            "count" : 4, 
            "max" : [
                1.0, 
                -2.980442914690684e-08, 
                -0.0, 
                -1.0
            ], 
            "min" : [
                1.0, 
                -2.980442914690684e-08, 
                -0.0, 
                -1.0
            ], 
            "type" : "VEC4"
        }, 
        {
            "bufferView" : 22, 
            "componentType" : 5126, 
            "count" : 4, 
            "max" : [
                1.9997879266738892, 
                1.4998939633369446
            ], 
            "min" : [
                -0.9997879266738892, 
                -0.49996471405029297
            ], 
            "type" : "VEC2"
        }, 
        {
            "bufferView" : 23, 
            "componentType" : 5123, 
            "count" : 2880, 
            "max" : [
                481
            ], 
            "min" : [
                0
            ], 
            "type" : "SCALAR"
        }, 
        {
            "bufferView" : 24, 
            "componentType" : 5126, 
            "count" : 482, 
            "max" : [
                1.000000238418579, 
                1.0, 
                1.0000003576278687
            ], 
            "min" : [
                -0.9999998211860657, 
                -1.0, 
                -0.9999991655349731
            ], 
            "type" : "VEC3"
        }, 
        {
            "bufferView" : 25, 
            "componentType" : 5126, 
            "count" : 482, 
            "max" : [
                1.0, 
                1.0, 
                1.0
            ], 
            "min" : [
                -1.0, 
                -1.0, 
                -1.0
            ], 
            "type" : "VEC3"
        }
    ], 
    "asset" : {
        "generator" : "Khronos Blender glTF 2.0 exporter", 
        "version" : "2.0"
    }, 
    "bufferViews" : [
        {
            "buffer" : 0, 
            "byteLength" : 84, 
            "byteOffset" : 0, 
            "target" : 34963
        }, 
        {
            "buffer" : 0, 
            "byteLength" : 672, 
            "byteOffset" : 84, 
            "target" : 34962
        }, 
        {
            "buffer" : 0, 
            "byteLength" : 672, 
            "byteOffset" : 756, 
            "target" : 34962
        }, 
        {
            "buffer" : 0, 
            "byteLength" : 6, 
            "byteOffset" : 1428, 
            "target" : 34963
        }, 
        {
            "buffer" : 0, 
            "byteLength" : 48, 
            "byteOffset" : 1436, 
            "target" : 34962
        }, 
        {
            "buffer" : 0, 
            "byteLength" : 48, 
            "byteOffset" : 1484, 
            "target" : 34962
        }, 
        {
            "buffer" : 0, 
            "byteLength" : 64, 
            "byteOffset" : 1532, 
            "target" : 34962
        }, 
        {
            "buffer" : 0, 
            "byteLength" : 32, 
            "byteOffset" : 1596, 
            "target" : 34962
        }, 
        {
            "buffer" : 0, 
            "byteLength" : 6, 
            "byteOffset" : 1628, 
            "target" : 34963
        }, 
        {
            "buffer" : 0, 
            "byteLength" : 48, 
            "byteOffset" : 1636, 
            "target" : 34962
        }, 
        {
            "buffer" : 0, 
            "byteLength" : 48, 
            "byteOffset" : 1684, 
            "target" : 34962
        }, 
        {
            "buffer" : 0, 
            "byteLength" : 64, 
            "byteOffset" : 1732, 
            "target" : 34962
        }, 
        {
            "buffer" : 0, 
            "byteLength" : 32, 
            "byteOffset" : 1796, 
            "target" : 34962
        }, 
        {
            "buffer" : 0, 
            "byteLength" : 6, 
            "byteOffset" : 1828, 
            "target" : 34963
        }, 
        {
            "buffer" : 0, 
            "byteLength" : 48, 
            "byteOffset" : 1836, 
            "target" : 34962
        }, 
        {
            "buffer" : 0, 
            "byteLength" : 48, 
            "byteOffset" : 1884, 
            "target" : 34962
        }, 
        {
            "buffer" : 0, 
            "byteLength" : 64, 
            "byteOffset" : 1932, 
            "target" : 34962
        }, 
        {
            "buffer" : 0, 
            "byteLength" : 32, 
            "byteOffset" : 1996, 
            "target" : 34962
        }, 
        {
            "buffer" : 0, 
            "byteLength" : 6, 
            "byteOffset" : 2028, 
            "target" : 34963
        }, 
        {
            "buffer" : 0, 
            "byteLength" : 48, 
            "byteOffset" : 2036, 
            "target" : 34962
        }, 
        {
            "buffer" : 0, 
            "byteLength" : 48, 
            "byteOffset" : 2084, 
            "target" : 34962
        }, 
        {
            "buffer" : 0, 
            "byteLength" : 64, 
            "byteOffset" : 2132, 
            "target" : 34962
        }, 
        {
            "buffer" : 0, 
            "byteLength" : 32, 
            "byteOffset" : 2196, 
            "target" : 34962
        }, 
        {
            "buffer" : 0, 
            "byteLength" : 5760, 
            "byteOffset" : 2228, 
            "target" : 34963
        }, 
        {
            "buffer" : 0, 
            "byteLength" : 5784, 
            "byteOffset" : 7988, 
            "target" : 34962
        }, 
        {
            "buffer" : 0, 
            "byteLength" : 5784, 
            "byteOffset" : 13772, 
            "target" : 34962
        }
    ], 
    "buffers" : [
        {
            "byteLength" : 19556, 
            "uri" : "Ejemplo 1.bin"
        }
    ], 
    "cameras" : [
        {
            "name" : "Camera", 
            "perspective" : {
                "aspectRatio" : 1.7777777777777777, 
                "yfov" : 0.5033799372418416, 
                "zfar" : 100.0, 
                "znear" : 0.10000000149011612
            }, 
            "type" : "perspective"
        }
    ], 
    "images" : [
        {
            "uri" : "Ladrillos.jpg"
        }, 
        {
            "uri" : "Ladrillos- NormalMap.jpg"
        }, 
        {
            "uri" : "Cesped.jpg"
        }, 
        {
            "uri" : "Cesped- NormalMap.jpg"
        }
    ], 
    "materials" : [
        {
            "name" : "Material", 
            "pbrMetallicRoughness" : {
                "baseColorFactor" : [
                    0.640000066757203, 
                    0.5626817787093188, 
                    0.039427397242596696, 
                    1.0
                ], 
                "metallicFactor" : 0.0
            }
        }, 
        {
            "name" : "Material.001", 
            "pbrMetallicRoughness" : {
                "baseColorFactor" : [
                    0.6400000190734865, 
                    0.6400000190734865, 
                    0.6400000190734865, 
                    1.0
                ], 
                "metallicFactor" : 0.0
            }
        }, 
        {
            "name" : "Pared", 
            "normalTexture" : {
                "index" : 1
            }, 
            "pbrMetallicRoughness" : {
                "baseColorFactor" : [
                    0.800000011920929, 
                    0.800000011920929, 
                    0.800000011920929, 
                    1.0
                ], 
                "baseColorTexture" : {
                    "index" : 0
                }, 
                "metallicFactor" : 0.0
            }
        }, 
        {
            "name" : "Suelo", 
            "normalTexture" : {
                "index" : 3
            }, 
            "pbrMetallicRoughness" : {
                "baseColorFactor" : [
                    0.800000011920929, 
                    0.800000011920929, 
                    0.800000011920929, 
                    1.0
                ], 
                "baseColorTexture" : {
                    "index" : 2
                }, 
                "metallicFactor" : 0.0
            }
        }
    ], 
    "meshes" : [
        {
            "name" : "Cube.005", 
            "primitives" : [
                {
                    "attributes" : {
                        "NORMAL" : 2, 
                        "POSITION" : 1
                    }, 
                    "indices" : 0, 
                    "material" : 1
                }
            ]
        }, 
        {
            "name" : "Cube.002", 
            "primitives" : [
                {
                    "attributes" : {
                        "NORMAL" : 5, 
                        "POSITION" : 4, 
                        "TANGENT" : 6, 
                        "TEXCOORD_0" : 7
                    }, 
                    "indices" : 3, 
                    "material" : 3
                }
            ]
        }, 
        {
            "name" : "Cube.004", 
            "primitives" : [
                {
                    "attributes" : {
                        "NORMAL" : 10, 
                        "POSITION" : 9, 
                        "TANGENT" : 11, 
                        "TEXCOORD_0" : 12
                    }, 
                    "indices" : 8, 
                    "material" : 2
                }
            ]
        }, 
        {
            "name" : "Cube.001", 
            "primitives" : [
                {
                    "attributes" : {
                        "NORMAL" : 15, 
                        "POSITION" : 14, 
                        "TANGENT" : 16, 
                        "TEXCOORD_0" : 17
                    }, 
                    "indices" : 13, 
                    "material" : 2
                }
            ]
        }, 
        {
            "name" : "Cube.003", 
            "primitives" : [
                {
                    "attributes" : {
                        "NORMAL" : 20, 
                        "POSITION" : 19, 
                        "TANGENT" : 21, 
                        "TEXCOORD_0" : 22
                    }, 
                    "indices" : 18, 
                    "material" : 2
                }
            ]
        }, 
        {
            "name" : "Sphere", 
            "primitives" : [
                {
                    "attributes" : {
                        "NORMAL" : 25, 
                        "POSITION" : 24
                    }, 
                    "indices" : 23, 
                    "material" : 0
                }
            ]
        }
    ], 
    "nodes" : [
        {
            "camera" : 0, 
            "name" : "Correction_Camera", 
            "rotation" : [
                -0.7071067690849304, 
                -0.0, 
                0.0, 
                0.7071067690849304
            ]
        }, 
        {
            "children" : [
                0
            ], 
            "name" : "Camera", 
            "rotation" : [
                0.582517147064209, 
                0.11916343867778778, 
                -0.08683700114488602, 
                0.7993329763412476
            ], 
            "scale" : [
                1.0, 
                0.9999999403953552, 
                1.0
            ], 
            "translation" : [
                5.307433605194092, 
                8.731656074523926, 
                18.84766960144043
            ]
        }, 
        {
            "mesh" : 0, 
            "name" : "Cube", 
            "scale" : [
                0.547661542892456, 
                0.547661542892456, 
                0.547661542892456
            ], 
            "translation" : [
                -2.5042431354522705, 
                0.5742620229721069, 
                2.9394731521606445
            ]
        }, 
        {
            "mesh" : 3, 
            "name" : "Pared1", 
            "scale" : [
                8.00307559967041, 
                8.00307559967041, 
                8.00307559967041
            ]
        }, 
        {
            "mesh" : 4, 
            "name" : "Pared2", 
            "scale" : [
                8.00307559967041, 
                8.00307559967041, 
                8.00307559967041
            ]
        }, 
        {
            "mesh" : 2, 
            "name" : "Pared3", 
            "scale" : [
                8.00307559967041, 
                8.00307559967041, 
                8.00307559967041
            ]
        }, 
        {
            "name" : "Point", 
            "translation" : [
                -2.4900405406951904, 
                4.794287204742432, 
                2.9513628482818604
            ]
        }, 
        {
            "mesh" : 5, 
            "name" : "Sphere", 
            "translation" : [
                -3.3680295944213867, 
                2.9654197692871094, 
                -2.175079345703125
            ]
        }, 
        {
            "name" : "Spot", 
            "rotation" : [
                -0.3915248215198517, 
                -0.8189433217048645, 
                0.15129967033863068, 
                0.3913421630859375
            ], 
            "scale" : [
                0.9999999403953552, 
                1.0, 
                1.0
            ], 
            "translation" : [
                7.543477535247803, 
                4.6163458824157715, 
                -7.073881149291992
            ]
        }, 
        {
            "mesh" : 1, 
            "name" : "Suelo", 
            "scale" : [
                8.00307559967041, 
                8.00307559967041, 
                8.00307559967041
            ]
        }
    ], 
    "samplers" : [
        {}
    ], 
    "scene" : 0, 
    "scenes" : [
        {
            "name" : "Scene", 
            "nodes" : [
                8, 
                6, 
                2, 
                7, 
                5, 
                4, 
                9, 
                3, 
                1
            ]
        }
    ], 
    "textures" : [
        {
            "sampler" : 0, 
            "source" : 0
        }, 
        {
            "sampler" : 0, 
            "source" : 1
        }, 
        {
            "sampler" : 0, 
            "source" : 2
        }, 
        {
            "sampler" : 0, 
            "source" : 3
        }
    ]
}
